<svg id="Layer_1" data-name="Layer 1" xmlns="http://www.w3.org/2000/svg" viewBox="0 0 433.02 402.38" fill="white">
  <path d="M107.85,99.44c16.78,0,39.23,22.61,57.9,55.6-5.74-32.59-.02-55.6,16.09-55.6,14.99,0,34.94,19.93,51.4,48.96-4.87-28.45,2.29-48.96,19.19-48.96,21.17,0,49.59,32.15,63.47,71.81,13.89,39.66,7.99,71.81-13.18,71.81-14.16,0-31.57-14.4-45.7-35.81,10.19,39.86,5.32,69.71-13.02,69.71-14.11,0-32.63-17.68-48.49-43.98,8.44,40.37,2.49,69.49-16.56,69.49-23.8,0-59.01-45.45-78.64-101.52-19.63-56.07-16.25-101.52,7.55-101.52Z"/>
  <path d="M309.58,279.8c2.16,11.91,11.85,22.24,21.65,23.09,9.8.85,15.99-8.12,13.83-20.03-2.16-11.91-11.85-22.24-21.65-23.09-9.8-.85-15.99,8.12-13.83,20.03Z"/>
</svg>
