<svg id="Layer_1" data-name="Layer 1" xmlns="http://www.w3.org/2000/svg" viewBox="0 0 1352.17 402.38">
  <g fill="white" stroke="white" stroke-width="2">
    <path d="M536.73,204.36v59.8h-25.33v-56.48c0-12.67-6.44-20.76-18.9-20.76-15.37,0-22.22,14.33-22.22,26.37v50.87h-25.33v-56.48c0-12.67-6.44-20.76-18.9-20.76-15.37,0-22.01,14.33-22.01,26.37v50.87h-25.33v-98l19.52-.83c1.87,6.44,3.11,17.03,3.11,21.39h.21c4.78-12.04,14.53-21.6,31.77-21.6s29.28,8.72,34.26,22.43c4.57-12.46,14.53-22.43,32.18-22.43,23.67,0,36.96,16.4,36.96,39.25Z"/>
    <path d="M554.37,166.16l25.33-.83v98.83h-25.33v-98Z"/>
    <path d="M691.49,203.95v60.21h-25.33v-56.69c0-12.67-6.64-20.97-19.1-20.97-16.2,0-23.46,14.53-23.46,26.79v50.87h-25.33v-98l19.52-.83c1.87,6.85,3.11,17.03,3.11,21.39h.62c4.98-11.84,14.95-21.8,32.81-21.8,24.09,0,37.17,16.4,37.17,39.04Z"/>
    <path d="M805.67,117.57v146.59l-20.14.83c-1.45-6.44-2.7-17.44-2.49-20.55h-.62c-5.4,12.04-16.4,20.97-33.84,20.97-26.79,0-44.43-20.76-44.43-50.04,0-31.56,19.72-50.46,45.68-50.46,14.74,0,24.71,6.02,30.52,14.33v-61.67h25.33ZM780.34,218.07v-5.81c0-12.04-8.72-26.16-26.16-26.16-14.74,0-24.5,11.42-24.5,29.28s9.76,28.86,25.33,28.86,25.33-13.7,25.33-26.16Z"/>
    <path d="M878.7,196.68c0-8.51-6.85-13.91-17.65-13.91s-15.99,4.78-15.99,11.42c0,20.56,57.72,4.78,58.14,42.36,0,17.65-16.2,28.86-42.15,28.86-27.82,0-41.11-11.84-44.64-14.74l12.67-15.57c2.7,2.49,16.61,11.84,31.35,11.84,11.42,0,17.03-3.74,17.03-9.34,0-17.03-56.48-6.44-56.48-42.36,0-18.27,16.2-30.32,40.9-30.32s39.66,11.63,39.66,27.62c0,3.94-.83,6.64-.83,6.64l-22.42,1.46c.21-.83.42-2.49.42-3.95Z"/>
    <path d="M1026.41,199.17c0,4.15-.62,6.85-.62,6.85l-22.63,1.45c.21-.62.42-2.49.42-4.57,0-9.55-6.44-17.23-18.48-17.23-14.74,0-24.5,11.63-24.5,29.07s9.55,29.9,27.61,29.9c16.2,0,24.71-8.1,27.82-11.84l12.87,15.78c-7.06,8.93-21.6,16.82-42.15,16.82-32.18,0-51.91-20.56-51.91-49.83s20.56-50.66,50.46-50.66c25.54,0,41.11,15.16,41.11,34.26Z"/>
    <path d="M1040.63,117.57h25.12v146.59h-25.12V117.57Z"/>
    <path d="M1175.03,166.16v98l-19.93.83c-1.66-6.85-2.91-17.03-2.91-19.93h-.41c-4.98,11.42-14.74,20.35-31.14,20.35-23.88,0-36.96-16.4-36.96-39.04v-60.21h25.33v56.69c0,12.67,6.44,20.97,18.9,20.97,14.53,0,21.8-14.53,21.8-26.78v-50.87h25.33Z"/>
    <path d="M1295.22,215.37c0,30.52-19.1,50.04-45.89,50.04-17.23,0-28.45-8.93-33.84-20.97h-.21c0,3.94-1.04,13.49-2.49,19.72h-19.1V117.57h25.33v63.74c5.61-9.13,15.57-16.4,31.77-16.4,25.33,0,44.43,18.9,44.43,50.46ZM1269.47,215.37c0-17.86-9.55-29.28-25.12-29.28-16.61,0-25.33,14.32-25.33,26.37v5.61c0,12.67,8.93,26.16,26.16,26.16,14.74,0,24.29-11.42,24.29-28.86Z"/>
    <path d="M552.63,138.61c2.47,9.09,10.68,16.45,18.33,16.45,7.65,0,11.85-7.37,9.38-16.45-2.47-9.09-10.68-16.45-18.33-16.45-7.65,0-11.85,7.37-9.38,16.45Z"/>
  </g>
  <g fill="white" stroke="white" stroke-width="2">
    <path d="M112.72,124.92c16.78,0,39.23,22.61,57.9,55.6-5.74-32.59-.02-55.6,16.09-55.6,14.99,0,34.94,19.93,51.4,48.96-4.87-28.45,2.29-48.96,19.19-48.96,21.17,0,49.59,32.15,63.47,71.81,13.89,39.66,7.99,71.81-13.18,71.81-14.16,0-31.57-14.4-45.7-35.81,10.19,39.86,5.32,69.71-13.02,69.71-14.11,0-32.63-17.68-48.49-43.98,8.44,40.37,2.49,69.49-16.56,69.49-23.8,0-59.01-45.45-78.64-101.52-19.63-56.07-16.25-101.52,7.55-101.52Z"/>
    <path d="M314.45,305.28c2.16,11.91,11.85,22.24,21.65,23.09,9.8.85,15.99-8.12,13.83-20.03-2.16-11.91-11.85-22.24-21.65-23.09-9.8-.85-15.99,8.12-13.83,20.03Z"/>
  </g>
</svg>